# xmcd CD database file
#
# Track frame offsets:
#	150
#	16260
#	31262
#	44770
#	58352
#	72132
#	87010
#	105357
#	121135
#	136685
#	146790
#	160225
#	175710
#	193052
#	208485
#	221337
#	231725
#	244537
#	258170
#	278300
#	291485
#
# Disc length: 4049 seconds
#
# Revision: 0
# Processed by: cddbd v1.4PL0 Copyright (c) Steve Scherf et al.
# Submitted via: CDex 1.50beta9
#
DISCID=350fcf15
DTITLE=The St. Louis Ragtimers - Volume 4
DYEAR=2001
DGENRE=Jazz
TTITLE0=Coon Hollow Capers
TTITLE1=Cows May Come And Cows May Go
TTITLE2=When Sambo Goes To Framce
TTITLE3=Willie the Weeper
TTITLE4=Meet Me In St. Louis, Louis
TTITLE5=The Cascades
TTITLE6=Waiting For The Robert E. Lee
TTITLE7=St. Louis Blues
TTITLE8=Mississippi Rag
TTITLE9=Ragtime Millionaire
TTITLE10=St. Louis Rag
TTITLE11=Down By The Riverside
TTITLE12=St. Louis Tickle
TTITLE13=Frankie And Johnnie
TTITLE14=Goldenrod Stomp
TTITLE15=Hot Time In The Old Town Tonight
TTITLE16=Papa Dip
TTITLE17=Everybody's Doin' It
TTITLE18=Save It Pretty Mama
TTITLE19=Sorry
TTITLE20=The Smiler Rag
EXTD=YEAR: 2001
EXTT0=
EXTT1=
EXTT2=
EXTT3=
EXTT4=
EXTT5=
EXTT6=
EXTT7=
EXTT8=
EXTT9=
EXTT10=
EXTT11=
EXTT12=
EXTT13=
EXTT14=
EXTT15=
EXTT16=
EXTT17=
EXTT18=
EXTT19=
EXTT20=
PLAYORDER=
